<svg xmlns="http://www.w3.org/2000/svg" version="1.1" xmlns:xlink="http://www.w3.org/1999/xlink" xmlns:svgjs="http://svgjs.dev/svgjs" width="1440" height="560" preserveAspectRatio="none" viewBox="0 0 1440 560"><g mask="url(&quot;#SvgjsMask1002&quot;)" fill="none"><rect width="1440" height="560" x="0" y="0" fill="url(&quot;#SvgjsLinearGradient1003&quot;)"></rect><path d="M1440 0L1002.23 0L1440 47.32z" fill="rgba(255, 255, 255, .1)"></path><path d="M1002.23 0L1440 47.32L1440 116.44999999999999L917.21 0z" fill="rgba(255, 255, 255, .075)"></path><path d="M917.21 0L1440 116.44999999999999L1440 276.59L877.07 0z" fill="rgba(255, 255, 255, .05)"></path><path d="M877.07 0L1440 276.59L1440 287.26L320.8900000000001 0z" fill="rgba(255, 255, 255, .025)"></path><path d="M0 560L501.6 560L0 518.91z" fill="rgba(0, 0, 0, .1)"></path><path d="M0 518.91L501.6 560L847.49 560L0 392.86999999999995z" fill="rgba(0, 0, 0, .075)"></path><path d="M0 392.87L847.49 560L877.95 560L0 339.64z" fill="rgba(0, 0, 0, .05)"></path><path d="M0 339.64L877.95 560L1167.5700000000002 560L0 152.91z" fill="rgba(0, 0, 0, .025)"></path></g><defs><mask id="SvgjsMask1002"><rect width="1440" height="560" fill="#ffffff"></rect></mask><linearGradient x1="15.28%" y1="-39.29%" x2="84.72%" y2="139.29%" gradientUnits="userSpaceOnUse" id="SvgjsLinearGradient1003"><stop stop-color="#0e2a47" offset="0"></stop><stop stop-color="#00459e" offset="1"></stop></linearGradient></defs></svg>