<svg xmlns="http://www.w3.org/2000/svg" version="1.1" xmlns:xlink="http://www.w3.org/1999/xlink" xmlns:svgjs="http://svgjs.dev/svgjs" width="1440" height="560" preserveAspectRatio="none" viewBox="0 0 1440 560"><g mask="url(&quot;#SvgjsMask1007&quot;)" fill="none"><rect width="1440" height="560" x="0" y="0" fill="#0e2a47"></rect><path d="M0,359.977C67.066,352.45,130.589,327.673,184.453,287.014C235.683,248.343,281.51,197.951,297.125,135.692C311.75,77.381,266.128,21.867,266.033,-38.25C265.915,-113.367,327.933,-188.698,296.507,-256.925C265.057,-325.206,185.555,-373.402,110.427,-376.081C36.551,-378.715,-14.768,-306.25,-79.375,-270.326C-127.598,-243.512,-176.748,-224.355,-221.207,-191.677C-277.63,-150.205,-368.532,-123.585,-373.996,-53.773C-379.57,17.446,-272.48,45.946,-244.964,111.871C-215.863,181.592,-266.211,277.877,-213.131,331.638C-161.737,383.691,-72.694,368.136,0,359.977" fill="#0b2239"></path><path d="M1440 977.033C1515.887 965.831 1566.55 898.7339999999999 1629.775 855.296 1690.67 813.4590000000001 1779.437 795.975 1804.6309999999999 726.521 1829.8890000000001 656.89 1763.191 588.363 1753.228 514.965 1743.1480000000001 440.70799999999997 1788.737 356.401 1746.031 294.823 1703.35 233.281 1616.403 222.947 1542.459 211.055 1475.193 200.23700000000002 1410.419 219.476 1343.11 230.02300000000002 1264.642 242.31900000000002 1174.358 225.702 1114.661 278.092 1053.876 331.437 1022.852 421.43399999999997 1033.68 501.58 1044.022 578.13 1139.208 612.478 1169.44 683.561 1201.025 757.826 1155.742 857.861 1210.444 917.196 1265.151 976.5360000000001 1360.155 988.819 1440 977.033" fill="#113255"></path></g><defs><mask id="SvgjsMask1007"><rect width="1440" height="560" fill="#ffffff"></rect></mask></defs></svg>